<?xml version="1.0" standalone="no"?><!DOCTYPE svg PUBLIC "-//W3C//DTD SVG 1.1//EN" "http://www.w3.org/Graphics/SVG/1.1/DTD/svg11.dtd"><svg t="1769878312323" class="icon" viewBox="0 0 1025 1024" version="1.1" xmlns="http://www.w3.org/2000/svg" p-id="21085" xmlns:xlink="http://www.w3.org/1999/xlink" width="200.1953125" height="200"><path d="M793.6 835.2c-19.2 41.6-9.6 92.8 28.8 121.6 38.4 28.8 89.6 28.8 128 3.2 38.4-28.8 51.2-76.8 35.2-118.4-19.2-41.6-64-67.2-112-60.8-19.2 3.2-38.4 9.6-54.4 25.6l-121.6-92.8c-6.4-3.2-12.8-6.4-22.4-3.2-6.4 3.2-12.8 9.6-12.8 16s3.2 16 9.6 19.2l121.6 89.6z m-470.4-121.6c-9.6-6.4-22.4-6.4-28.8 0l-131.2 124.8c-41.6-25.6-92.8-22.4-128 9.6s-44.8 83.2-22.4 121.6c22.4 41.6 70.4 60.8 118.4 51.2 44.8-12.8 80-51.2 80-99.2 0-19.2-6.4-38.4-16-54.4l131.2-124.8c6.4-9.6 6.4-22.4-3.2-28.8z m64-611.2c0 48 35.2 89.6 83.2 99.2v102.4c0 6.4 3.2 16 9.6 19.2 6.4 3.2 16 3.2 22.4 0 6.4-3.2 9.6-9.6 9.6-19.2v-102.4c54.4-9.6 89.6-60.8 83.2-112-6.4-51.2-54.4-89.6-112-86.4-54.4 0-96 44.8-96 99.2z m428.8 364.8l-99.2 35.2c-9.6 3.2-16 16-12.8 25.6 3.2 9.6 16 16 28.8 12.8l99.2-35.2c28.8 44.8 86.4 60.8 134.4 38.4s70.4-76.8 54.4-124.8c-19.2-48-70.4-76.8-121.6-64-57.6 9.6-89.6 57.6-83.2 112z m-633.6-281.6c-35.2-28.8-86.4-32-128-6.4-38.4 25.6-57.6 73.6-41.6 115.2 16 44.8 57.6 70.4 105.6 67.2 19.2 0 38.4-9.6 54.4-19.2l80 67.2c6.4 6.4 12.8 6.4 22.4 6.4 6.4-3.2 12.8-9.6 16-16 0-6.4-3.2-16-9.6-19.2l-80-67.2c9.6-16 16-35.2 12.8-57.6 3.2-28.8-9.6-54.4-32-70.4z" fill="#8a8a8a" p-id="21086"></path><path d="M464 800c-150.4 0-272-115.2-272-256s121.6-256 272-256 272 115.2 272 256-121.6 256-272 256z" fill="#8a8a8a" p-id="21087"></path><path d="M464 288c-131.2 0-240 108.8-240 240s108.8 240 240 240 240-108.8 240-240c0-64-25.6-124.8-70.4-169.6-44.8-44.8-105.6-70.4-169.6-70.4z" fill="#8a8a8a" p-id="21088"></path><path d="M384 480c0 38.4 22.4 73.6 57.6 89.6s76.8 6.4 105.6-19.2c28.8-28.8 35.2-70.4 22.4-105.6-16-35.2-51.2-60.8-89.6-60.8-51.2 0-96 41.6-96 96z" fill="#8a8a8a" p-id="21089"></path><path d="M608 611.2c-12.8-51.2-60.8-89.6-118.4-99.2l-19.2 28.8h-19.2l-19.2-28.8c-57.6 9.6-102.4 51.2-112 105.6 0 6.4 0 22.4 25.6 22.4h92.8l16-99.2h12.8l16 99.2h99.2c25.6 0 25.6-19.2 25.6-28.8zM48 300.8c-22.4-25.6-22.4-67.2 3.2-89.6 22.4-19.2 54.4-22.4 76.8-6.4 25.6 16 35.2 44.8 25.6 73.6-9.6 28.8-35.2 44.8-64 44.8-12.8-3.2-28.8-9.6-41.6-22.4zM48 940.8c-22.4-25.6-22.4-67.2 3.2-89.6 25.6-22.4 67.2-22.4 89.6 3.2 16 19.2 22.4 48 9.6 70.4-9.6 22.4-35.2 38.4-60.8 38.4-12.8-3.2-28.8-9.6-41.6-22.4zM848 908.8c-22.4-25.6-22.4-67.2 3.2-89.6 22.4-19.2 54.4-22.4 76.8-6.4 25.6 16 35.2 44.8 25.6 73.6-9.6 28.8-35.2 44.8-64 44.8-12.8-3.2-28.8-9.6-41.6-22.4zM912 492.8c-22.4-25.6-22.4-67.2 3.2-89.6 22.4-19.2 54.4-22.4 76.8-6.4 25.6 16 35.2 44.8 25.6 73.6s-35.2 44.8-64 44.8c-12.8-3.2-28.8-9.6-41.6-22.4zM432 140.8c-22.4-25.6-22.4-67.2 3.2-89.6 22.4-19.2 54.4-22.4 76.8-6.4 25.6 16 35.2 44.8 25.6 73.6-9.6 28.8-35.2 44.8-64 44.8-12.8-3.2-28.8-9.6-41.6-22.4z" fill="#8a8a8a" p-id="21090"></path></svg>