<?xml version="1.0" standalone="no"?><!DOCTYPE svg PUBLIC "-//W3C//DTD SVG 1.1//EN" "http://www.w3.org/Graphics/SVG/1.1/DTD/svg11.dtd"><svg t="1769878715333" class="icon" viewBox="0 0 1024 1024" version="1.1" xmlns="http://www.w3.org/2000/svg" p-id="2834" data-spm-anchor-id="a313x.manage_type_mylikes.0.i15.73ea3a81FIDnM9" xmlns:xlink="http://www.w3.org/1999/xlink" width="200" height="200"><path d="M692.705882 9.155765c26.021647 0 47.585882 19.456 50.718118 44.694588l0.361412 6.384941v180.705882c0 26.021647-19.456 47.585882-44.694588 50.718118L692.705882 292.020706H290.273882v166.189176h353.701647a150.648471 150.648471 0 1 1 1.92753 102.219294l-355.689412-0.060235v259.252706h353.761882a150.648471 150.648471 0 1 1 1.92753 102.219294H239.194353a51.079529 51.079529 0 0 1-50.718118-44.694588l-0.421647-6.445177V292.020706H90.352941a51.079529 51.079529 0 0 1-50.718117-44.694588L39.273412 240.941176V60.235294c0-26.021647 19.456-47.585882 44.694588-50.718118L90.352941 9.155765h602.352941z m93.906824 810.465882a48.429176 48.429176 0 1 0 0 96.798118 48.429176 48.429176 0 0 0 0-96.798118z m0-361.411765a48.429176 48.429176 0 1 0 0 96.798118 48.429176 48.429176 0 0 0 0-96.798118zM641.505882 111.314824H141.432471v78.486588h500.133647V111.314824z" fill="#8a8a8a" p-id="2835"></path></svg>